<svg xmlns="http://www.w3.org/2000/svg" viewBox="0 0 24 24"><path fill="#fff" d="M12 2.2c3.2 0 3.6 0 4.9.1 1.2.1 1.9.2 2.3.4.6.2 1 .4 1.5.8.4.4.7.9.8 1.5.2.4.3 1.1.4 2.3.1 1.3.1 1.7.1 4.9s0 3.6-.1 4.9c-.1 1.2-.2 1.9-.4 2.3-.2.6-.4 1-.8 1.5-.4.4-.9.7-1.5.8-.4.2-1.1.3-2.3.4-1.3.1-1.7.1-4.9.1s-3.6 0-4.9-.1c-1.2-.1-1.9-.2-2.3-.4-.6-.2-1-.4-1.5-.8-.4-.4-.7-.9-.8-1.5-.2-.4-.3-1.1-.4-2.3C2.2 15.6 2.2 15.2 2.2 12s0-3.6.1-4.9c.1-1.2.2-1.9.4-2.3.2-.6.4-1 .8-1.5.4-.4.9-.7 1.5-.8.4-.2 1.1-.3 2.3-.4C8.4 2.2 8.8 2.2 12 2.2m0 1.8c-3.1 0-3.5 0-4.7.1-1 .1-1.6.2-1.9.3-.5.2-.9.4-1.3.8-.3.3-.5.7-.6 1.3-.1.3-.2.9-.3 1.9-.1 1.2-.1 1.6-.1 4.7s0 3.5.1 4.7c.1 1 .2 1.6.3 1.9.2.5.5 1 .8 1.3.3.3.7.5 1.3.6.3.1.9.2 1.9.3 1.2.1 1.6.1 4.7.1s3.5 0 4.7-.1c1 0 1.6-.2 1.9-.3.5-.2 1-.5 1.3-.8.3-.3.6-.7.8-1.3.1-.3.2-.9.3-1.9.1-1.2.1-1.6.1-4.7s0-3.5-.1-4.7c-.1-1-.2-1.6-.3-1.9-.2-.5-1-.9-1.3-1.3-.3-.3-.7-.5-1.3-.6-.3-.1-.9-.2-1.9-.3-1.2-.1-1.6-.1-4.7-.1M12 5.8a6.2 6.2 0 1 1 0 12.4 6.2 6.2 0 0 1 0-12.4m0 1.8a4.4 4.4 0 1 0 0 8.8 4.4 4.4 0 0 0 0-8.8m5-1.3a1.1 1.1 0 1 1 0 2.2 1.1 1.1 0 0 1 0-2.2"/></svg>